<svg xmlns="http://www.w3.org/2000/svg" xmlns:xlink="http://www.w3.org/1999/xlink" viewBox="0 0 372.507 184.5634"><defs><style>.a{fill:url(#a);}.b{fill:url(#b);}.c{fill:url(#c);}.d{fill:url(#d);}.e{fill:url(#e);}.f{fill:url(#f);}.g{fill:url(#g);}.h{fill:#63c9d8;}.i{fill:url(#h);}.j{fill:url(#i);}.k{fill:#282828;}.l{fill:#4c4c4d;}</style><linearGradient id="a" x1="110.9697" y1="58.5054" x2="17.7446" y2="133.004" gradientUnits="userSpaceOnUse"><stop offset="0" stop-color="#53bc79"/><stop offset="0.0235" stop-color="#54bc7e"/><stop offset="0.215" stop-color="#57bda6"/><stop offset="0.4039" stop-color="#5abec5"/><stop offset="0.587" stop-color="#5cbfdb"/><stop offset="0.762" stop-color="#5ebfe8"/><stop offset="0.9198" stop-color="#5ebfed"/></linearGradient><linearGradient id="b" x1="83.5294" y1="21.5841" x2="44.2712" y2="67.431" gradientUnits="userSpaceOnUse"><stop offset="0" stop-color="#74c488"/><stop offset="0.2374" stop-color="#c0e0b6"/><stop offset="1" stop-color="#71cee8"/></linearGradient><linearGradient id="c" x1="81.2271" y1="33.9257" x2="34.1315" y2="71.561" gradientUnits="userSpaceOnUse"><stop offset="0" stop-color="#53bc79"/><stop offset="1" stop-color="#5ebfed"/></linearGradient><linearGradient id="d" x1="93.0112" y1="118.5484" x2="29.1002" y2="169.6214" xlink:href="#b"/><linearGradient id="e" x1="94.0706" y1="119.9328" x2="29.6942" y2="171.3777" xlink:href="#c"/><linearGradient id="f" x1="131.0919" y1="47.1187" x2="9.2567" y2="144.4805" xlink:href="#b"/><linearGradient id="g" x1="131.3941" y1="47.8213" x2="9.5502" y2="145.1899" xlink:href="#a"/><linearGradient id="h" x1="-48.2321" y1="569.4204" x2="-32.0258" y2="569.4204" gradientTransform="translate(639.3208 60.5928) rotate(90)" xlink:href="#a"/><linearGradient id="i" x1="-54.2548" y1="571.1412" x2="-44.884" y2="571.1412" gradientTransform="translate(639.3208 60.5928) rotate(90)" xlink:href="#a"/></defs><title>Jaes-Logo-01</title><path class="a" d="M109.962,135.3561a58.6691,58.6691,0,0,1-62.3955,18.2332,65.429,65.429,0,0,1-8.08-3.1452,63.2876,63.2876,0,0,1-7.54-4.3021A61.1559,61.1559,0,0,1,19.128,134.4775a61.7609,61.7609,0,0,1-8.2572-65.5117A60.8294,60.8294,0,0,1,33.6879,43.3244a59.6362,59.6362,0,0,1,32.961-8.8838A58.01,58.01,0,0,1,98.6966,45.2591a60.79,60.79,0,0,0-15.405-7.038A58.7125,58.7125,0,0,0,66.6271,35.86a57.8045,57.8045,0,0,0-31.7424,9.3519A59.56,59.56,0,0,0,13.2809,70.094a63.5308,63.5308,0,0,0-2.9773,7.777,64.2087,64.2087,0,0,0-1.8408,8.12,61.6194,61.6194,0,0,0-.69,8.2972c-.0651,1.3883.0252,2.7778.0483,4.1662.11,1.3843.1638,2.7748.3639,4.15A58.5949,58.5949,0,0,0,81.32,152.6429,60.1225,60.1225,0,0,0,109.962,135.3561Z"/><path class="b" d="M62.0065,51.82C81.576,39.1062,85.2942,21.2,85.8827,12.4977l-.5219.0633a55.088,55.088,0,0,1-10.5538,18.93A61.2139,61.2139,0,0,1,59.57,44.0055l-2.3766,1.4308c-.9124.5471-1.8182,1.1076-2.6947,1.732l-1.3229.9144-1.2866.9842c-.8675.6358-1.6818,1.3657-2.5081,2.0673a45.09,45.09,0,0,0-8.5483,10.0172A35.8713,35.8713,0,0,0,35.97,73.5058a28.4087,28.4087,0,0,0-.4405,6.58,18.319,18.319,0,0,0,1.3683,6.3757l.5727-.0323C37.8012,71.0786,44.6514,63.0953,62.0065,51.82Z"/><path class="c" d="M88.0038,18.6014A21.4213,21.4213,0,0,0,86.16,12.464l-.2777.0337C85.2942,21.2,81.576,39.1062,62.0065,51.82,44.6514,63.0953,37.8012,71.0786,37.47,86.4287l.2314-.013a47.05,47.05,0,0,1,5.9-9.646,57.58,57.58,0,0,1,7.0715-7.4807,77.3362,77.3362,0,0,1,7.9467-6.1617c1.3968-.9464,2.8073-1.8755,4.2719-2.76.72-.4531,1.4615-.8861,2.2036-1.3212l1.1781-.7034,1.3851-.8514a48.77,48.77,0,0,0,10.16-8.3838,41.9286,41.9286,0,0,0,7.3838-11.1751A38.432,38.432,0,0,0,87.3766,31.61a36.1936,36.1936,0,0,0,.9542-6.5313A30.8547,30.8547,0,0,0,88.0038,18.6014Z"/><path class="d" d="M60.7531,141.7967c18.9355-11.94,24.8932-23.605,26.7648-30.0636l-.0066-.0671c-1.06,1.6105-10.3324,8.187-17.883,13.0186C64.0925,128.227,58.5509,131.8305,53.26,135.74c-9.4315,6.9687-15.9648,16.5044-17.6047,28.369a45.0473,45.0473,0,0,0-.1512,11.1237c.0952.8555.5738,2.2108.7286,3.3132C38.1274,163.2367,43.4884,152.6836,60.7531,141.7967Z"/><path class="e" d="M60.7531,141.7967c-17.2647,10.8869-22.6257,21.44-24.5209,36.7494a3.2748,3.2748,0,0,1,.0146,1.0314C39.23,163.96,52.86,156.8516,65.03,149.542c6.1524-3.6954,12.51-8.0908,16.6531-14.12,6.9991-10.1858,5.93-22.7179,5.8353-23.6887C85.6463,118.1917,79.6886,129.8563,60.7531,141.7967Z"/><path class="f" d="M39.9679,120.06c23.8255-22.5477,47.05-31.8084,57.0611-42.68,6.9232-7.5183,17.68-21.56,21.3563-44.8534-9.9369,24.2172-35.8318,41.3221-51.39,51.6982a321.19,321.19,0,0,0-30.7984,23.957c-19.2127,18.7646-15.5077,44.5529-14.2332,50.89C22.0136,150.7885,24.4229,134.7712,39.9679,120.06Z"/><path class="g" d="M118.6567,31.8822c-.086.2169-.1828.429-.2714.6447C114.7089,55.82,103.9522,69.862,97.029,77.38,87.0183,88.2515,63.7934,97.5122,39.9679,120.06c-15.545,14.7113-17.9543,30.7286-18.0046,39.0123.1886.9377.3243,1.4529.3243,1.4529v.6039s4.9675-21.34,36.5607-39.66C84.3252,106.6958,99.78,91.07,99.78,91.07,125.81,63.6906,118.6567,31.8822,118.6567,31.8822Z"/><path class="h" d="M14.67,117.597a32.0509,32.0509,0,0,1,3.3522-10.1535,39.9578,39.9578,0,0,1,6.31-8.75,56.8942,56.8942,0,0,1,8.1327-7.0978,87.89,87.89,0,0,1,9.0664-5.8c1.56-.8806,3.1386-1.7226,4.7239-2.55l4.78-2.3732c3.1679-1.5915,6.3434-3.1309,9.37-4.9115a50.2982,50.2982,0,0,0,8.5626-6.0465,32.8593,32.8593,0,0,0,6.6774-8.13,27.8053,27.8053,0,0,1-5.8843,8.95,45.2916,45.2916,0,0,1-8.4233,6.7561c-6.089,3.8521-12.6431,6.714-18.7926,10.1179A81.1049,81.1049,0,0,0,25.433,99.7743a43.8392,43.8392,0,0,0-6.6011,8.13A35.0911,35.0911,0,0,0,14.67,117.597Z"/><path class="h" d="M14.21,122.318a31.5255,31.5255,0,0,1,3.6021-10.0949,39.9954,39.9954,0,0,1,6.6071-8.6412,57.8805,57.8805,0,0,1,8.4467-6.9581,90.3553,90.3553,0,0,1,9.3813-5.6452c1.6124-.8538,3.2428-1.6688,4.88-2.4686l4.9343-2.2914c3.2706-1.5372,6.5482-3.0223,9.6775-4.751a51.5411,51.5411,0,0,0,8.8694-5.9,33.0393,33.0393,0,0,0,6.9736-8.0146,27.757,27.757,0,0,1-6.1751,8.8483,46.2093,46.2093,0,0,1-8.7386,6.6116c-6.3,3.7477-13.0592,6.4975-19.4135,9.796a83.0749,83.0749,0,0,0-17.7261,11.8721,44.0556,44.0556,0,0,0-6.8955,8.0168A34.6657,34.6657,0,0,0,14.21,122.318Z"/><polygon class="i" points="69.209 22.836 73.816 18.144 73.763 18.092 78.596 18.092 78.596 12.361 72.47 12.361 72.47 17.291 68.868 20.958 61.204 20.958 61.204 28.567 69.209 28.567 69.209 22.836"/><polygon class="j" points="67.78 12.395 70.444 9.682 70.413 9.652 73.208 9.652 73.208 6.338 69.665 6.338 69.665 9.189 67.583 11.309 63.151 11.309 63.151 15.709 67.78 15.709 67.78 12.395"/><path class="k" d="M138.5517,76.9506h13.056v31.8947c0,2.8809-.5436,5.0325-1.6159,6.3928-.6067.7707-1.7226,1.796-4.396,1.796a6.0016,6.0016,0,0,1-4.5979-1.6745c-1.1858-1.2455-2.0184-3.3305-2.4726-6.1932l-.3636-2.2892-18.201,2.6242.4152,2.3832c1.2409,7.1129,3.93,12.3862,7.9926,15.6779,4.0371,3.2731,9.7944,4.9338,17.1126,4.9338,7.5545,0,13.58-2.1516,17.9063-6.3973,4.3443-4.2549,6.5464-10.1751,6.5464-17.5955V61.4883H138.5517Z"/><path class="k" d="M366.5161,102.2347a17.54,17.54,0,0,0-4.1632-6.1427,23.6278,23.6278,0,0,0-7.1176-4.4109,80.8113,80.8113,0,0,0-13.88-3.7985c-6.4271-1.3762-9.0558-2.2341-10.1316-2.7135a7.8145,7.8145,0,0,1-3.0094-2.1217,4.2039,4.2039,0,0,1-.8074-2.7182c0-1.4863,0-5.4385,10.1361-5.4385,3.39,0,5.95.5735,7.6038,1.7043a7.99,7.99,0,0,1,3.17,4.9775l.4978,2.0437L366.67,81.3087,366.19,78.85c-1.2707-6.5143-4.2663-11.2923-8.9067-14.1984-4.5049-2.8213-10.8884-4.193-19.513-4.193-8.9364,0-15.9072,1.7455-20.7207,5.1908-5.0612,3.6173-7.6268,8.8263-7.6268,15.4806a22.9575,22.9575,0,0,0,.9715,6.9592,15.6716,15.6716,0,0,0,2.9681,5.4454,19.3056,19.3056,0,0,0,4.4958,3.8467,28.6759,28.6759,0,0,0,5.6747,2.6837c2.0347.72,5.4684,1.6446,10.5652,2.84a75.5161,75.5161,0,0,1,11.04,2.7961,10.163,10.163,0,0,1,3.7778,2.4314,4.2707,4.2707,0,0,1,1.0529,3.0048c0,1.7708,0,6.4707-11.9689,6.4707-4.1929,0-7.4387-.69-9.6452-2.0552a9.7632,9.7632,0,0,1-4.2343-6.1657l-.5483-2.06-17.7364,2.9292.5539,2.4314c1.5116,6.6358,4.9453,11.6775,10.2037,14.9828,5.0911,3.2021,12.14,4.8261,20.95,4.8261,9.6981,0,17.21-1.8625,22.3275-5.5349,5.3605-3.8489,8.0787-9.441,8.0787-16.6251A21.4293,21.4293,0,0,0,366.5161,102.2347Z"/><polygon class="k" points="302.785 76.724 302.785 61.488 246.665 61.488 246.665 76.671 272.897 76.671 302.785 76.724"/><polygon class="k" points="299.922 103.751 299.922 88.516 272.897 88.516 246.665 88.531 246.665 103.765 264.991 103.751 299.922 103.751"/><path class="k" d="M238.0279,116.4192l-20.01-54.9309H198.5806l-25.533,70.0928h18.6516s15.57-46.3547,16.6356-49.543L209,84.192l15.8888,47.3891h79.7266V116.3459l-36.4157.0733Z"/><path class="l" d="M165.5006,145.1773a4.3874,4.3874,0,0,0-3.63-1.7065c-2.1443,0-3.1717.8964-3.1717,2.0341,0,1.3342,1.5739,1.7065,3.4115,1.9254,3.1926.3931,6.1677,1.224,6.1677,4.8767,0,3.4115-3.0183,4.8768-6.43,4.8768-3.1271,0-5.5334-.962-6.6711-3.7615l2.4064-1.2463a4.3622,4.3622,0,0,0,4.3079,2.4272c1.8152,0,3.5216-.6344,3.5216-2.2962,0-1.4429-1.51-2.0341-3.5425-2.253-3.1285-.3708-6.0144-1.2032-6.0144-4.6355,0-3.1509,3.1048-4.44,5.9266-4.4628,2.384,0,4.8544.6791,6.0144,3.0407Z"/><path class="l" d="M191.2468,149.2231c-.0446,3.96-2.4718,7.9175-7.8519,7.9175s-7.8743-3.8716-7.8743-7.8951,2.5821-8.0709,7.8743-8.0709C188.6663,141.1746,191.29,145.2205,191.2468,149.2231Zm-12.882.0655c.0655,2.5151,1.4206,5.2059,5.03,5.2059s4.9646-2.7116,5.0078-5.2282c.0447-2.5806-1.4-5.4664-5.0078-5.4664S178.2993,146.7081,178.3648,149.2886Z"/><path class="l" d="M201.9444,141.4814v12.6408h7.8743v2.6684h-10.76V141.4814Z"/><path class="l" d="M230.0747,141.5022v8.7707c0,4.5268-2.7787,6.8453-6.6264,6.8453-3.6751,0-6.8022-2.2306-6.8022-6.8453v-8.7707h2.865v8.7707c0,2.7563,1.574,4.2216,3.958,4.2216s3.7406-1.5963,3.7406-4.2216v-8.7707Z"/><path class="l" d="M242.5442,144.1051H237.69v-2.6237h12.5977v2.6237h-4.8559v12.6855h-2.8874Z"/><path class="l" d="M257.7478,156.7906V141.4814h2.865v15.3092Z"/><path class="l" d="M284.5215,149.2231c-.0447,3.96-2.4719,7.9175-7.8519,7.9175s-7.8743-3.8716-7.8743-7.8951,2.5806-8.0709,7.8743-8.0709C281.9409,141.1746,284.5647,145.2205,284.5215,149.2231Zm-12.8821.0655c.0656,2.5151,1.4206,5.2059,5.03,5.2059,3.608,0,4.9646-2.7116,5.0077-5.2282.0447-2.5806-1.4-5.4664-5.0077-5.4664C273.06,143.8,271.5739,146.7081,271.6394,149.2886Z"/><path class="l" d="M302.3935,141.459h2.8873v15.3316h-1.7944v.0224l-8.0484-10.3462v10.3238h-2.8859V141.4814h2.3394l7.502,9.4914Z"/><path class="l" d="M323.3061,145.1773a4.3872,4.3872,0,0,0-3.63-1.7065c-2.1443,0-3.1718.8964-3.1718,2.0341,0,1.3342,1.574,1.7065,3.4115,1.9254,3.1941.3931,6.1678,1.224,6.1678,4.8767,0,3.4115-3.0184,4.8768-6.43,4.8768-3.1271,0-5.5334-.962-6.6711-3.7615l2.4064-1.2463a4.3622,4.3622,0,0,0,4.3079,2.4272c1.8152,0,3.5217-.6344,3.5217-2.2962,0-1.4429-1.5085-2.0341-3.5425-2.253-3.1286-.3708-6.0159-1.2032-6.0159-4.6355,0-3.1509,3.1062-4.44,5.928-4.4628,2.384,0,4.8544.6791,6.0144,3.0407Z"/></svg>